<?xml version="1.0" encoding="UTF-8" standalone="no"?>
<!DOCTYPE svg PUBLIC "-//W3C//DTD SVG 1.1//EN" "http://www.w3.org/Graphics/SVG/1.1/DTD/svg11.dtd">
<svg width="301px" height="98px" viewBox="0 0 301 98" version="1.1" xmlns="http://www.w3.org/2000/svg" xmlns:xlink="http://www.w3.org/1999/xlink" xml:space="preserve" xmlns:serif="http://www.serif.com/" style="fill-rule:evenodd;clip-rule:evenodd;stroke-linejoin:round;stroke-miterlimit:2;">
    <g transform="matrix(0.021226,0,0,-0.021173,-63.501287,264.055589)">
        <path d="M9062,11888C9053,11879 9050,11803 9050,11609C9050,11389 9053,11340 9064,11330C9074,11322 9118,11319 9197,11320C9262,11321 9321,11321 9327,11321C9337,11320 9340,11253 9342,11038L9345,10755L9625,10745L9635,10175L9915,10165L9918,9881C9920,9660 9917,9595 9908,9588C9901,9583 9841,9580 9775,9580C9709,9581 9649,9581 9643,9581C9633,9580 9630,9516 9630,9295L9630,9011L9488,9008L9345,9005L9342,8731C9341,8580 9344,8452 9348,8448C9354,8442 9707,8436 9900,8440C9906,8440 9911,8546 9912,8723L9915,9005L10195,9015L10205,9585L10495,9585L10505,9015L10785,9005L10788,8723C10789,8567 10794,8440 10798,8439C10802,8439 10862,8437 10932,8435C11003,8433 11064,8428 11070,8425C11076,8421 11080,8316 11080,8139L11080,7860L11363,7862L11645,7865L11645,8425L11365,8435L11355,9005L11075,9015L11072,9297L11070,9579L10927,9582L10785,9585L10785,10165L11065,10175L11075,10745L11218,10748L11360,10751L11358,11033L11355,11315L10795,11315L10785,10745L10643,10742L10500,10739L10500,10456C10500,10206 10498,10171 10484,10166C10475,10163 10413,10160 10345,10160C10253,10160 10220,10163 10211,10174C10203,10184 10200,10266 10200,10451L10200,10728C10200,10737 10166,10740 10066,10740C9964,10740 9930,10743 9921,10754C9912,10764 9909,10844 9910,11032C9911,11176 9911,11301 9910,11308C9910,11317 9875,11320 9770,11320C9665,11320 9630,11323 9630,11333C9629,11339 9629,11464 9630,11608C9631,11796 9628,11876 9619,11886C9603,11905 9081,11907 9062,11888Z" style="fill:rgb(54,54,54);fill-rule:nonzero;"/>
        <path d="M3275,11308C3272,11301 3271,10652 3272,9865L3275,8435L3845,8435L3855,10165L3984,10168C4070,10170 4117,10167 4126,10159C4137,10150 4140,10095 4140,9869L4140,9590L4273,9590C4363,9590 4410,9586 4418,9578C4427,9569 4430,9491 4430,9288L4430,9010L4569,9010C4690,9010 4709,9008 4714,8993C4718,8984 4720,8857 4719,8712C4719,8566 4722,8444 4727,8439C4732,8434 4915,8431 5156,8432L5575,8435L5578,9878L5580,11320L5295,11320C5074,11320 5010,11317 5010,11308C5010,11301 5009,10913 5007,10445L5005,9595L4863,9592C4752,9590 4720,9592 4720,9602L4720,9881C4720,10101 4718,10149 4706,10159C4697,10167 4652,10171 4573,10170C4508,10169 4449,10169 4443,10169C4433,10170 4430,10237 4428,10453L4425,10735L4145,10745L4135,11315L3707,11318C3370,11320 3278,11318 3275,11308Z" style="fill:rgb(54,54,54);fill-rule:nonzero;"/>
        <path d="M6455,11308C6452,11301 6451,10652 6452,9865L6455,8435L8465,8435L8465,9005L7035,9015L7035,9585L7605,9595L7608,9869C7610,10066 7607,10146 7599,10157C7589,10168 7537,10170 7321,10170L7043,10170C7033,10170 7030,10234 7030,10455L7030,10740L7748,10742L8465,10745L8468,11033L8470,11320L7465,11320C6670,11320 6458,11317 6455,11308Z" style="fill:rgb(54,54,54);fill-rule:nonzero;"/>
        <path d="M12235,11308C12232,11301 12231,10782 12232,10155L12235,9015L12515,9005L12525,8435L13234,8432C13644,8431 13948,8434 13953,8439C13958,8444 13961,8569 13961,8716C13960,8864 13963,8990 13968,8997C13973,9006 14018,9010 14110,9012L14245,9015L14248,10168L14250,11320L13965,11320C13744,11320 13680,11317 13680,11308L13680,10165C13680,9544 13676,9029 13672,9022C13665,9013 13572,9010 13239,9012L12815,9015L12805,11315L12522,11318C12301,11320 12238,11318 12235,11308Z" style="fill:rgb(54,54,54);fill-rule:nonzero;"/>
        <path d="M15125,11308C15122,11301 15121,10913 15122,10445L15125,9595L15835,9592C16225,9591 16548,9586 16553,9581C16559,9575 16564,9175 16560,9018C16560,9013 16237,9009 15843,9008L15125,9005L15125,8435L17135,8435L17135,10165L16430,10167C16042,10169 15719,10170 15713,10170C15703,10170 15700,10234 15700,10455L15700,10740L16418,10742L17135,10745L17135,11315L16132,11318C15335,11320 15128,11318 15125,11308Z" style="fill:rgb(54,54,54);fill-rule:nonzero;"/>
    </g>
    <g transform="matrix(0.021226,0,0,-0.021173,-69.444666,251.986934)">
        <path d="M9062,11888C9053,11879 9050,11803 9050,11609C9050,11389 9053,11340 9064,11330C9074,11322 9118,11319 9197,11320C9262,11321 9321,11321 9327,11321C9337,11320 9340,11253 9342,11038L9345,10755L9625,10745L9635,10175L9915,10165L9918,9881C9920,9660 9917,9595 9908,9588C9901,9583 9841,9580 9775,9580C9709,9581 9649,9581 9643,9581C9633,9580 9630,9516 9630,9295L9630,9011L9488,9008L9345,9005L9342,8731C9341,8580 9344,8452 9348,8448C9354,8442 9707,8436 9900,8440C9906,8440 9911,8546 9912,8723L9915,9005L10195,9015L10205,9585L10495,9585L10505,9015L10785,9005L10788,8723C10789,8567 10794,8440 10798,8439C10802,8439 10862,8437 10932,8435C11003,8433 11064,8428 11070,8425C11076,8421 11080,8316 11080,8139L11080,7860L11363,7862L11645,7865L11645,8425L11365,8435L11355,9005L11075,9015L11072,9297L11070,9579L10927,9582L10785,9585L10785,10165L11065,10175L11075,10745L11218,10748L11360,10751L11358,11033L11355,11315L10795,11315L10785,10745L10643,10742L10500,10739L10500,10456C10500,10206 10498,10171 10484,10166C10475,10163 10413,10160 10345,10160C10253,10160 10220,10163 10211,10174C10203,10184 10200,10266 10200,10451L10200,10728C10200,10737 10166,10740 10066,10740C9964,10740 9930,10743 9921,10754C9912,10764 9909,10844 9910,11032C9911,11176 9911,11301 9910,11308C9910,11317 9875,11320 9770,11320C9665,11320 9630,11323 9630,11333C9629,11339 9629,11464 9630,11608C9631,11796 9628,11876 9619,11886C9603,11905 9081,11907 9062,11888Z" style="fill:rgb(0,170,2);fill-rule:nonzero;"/>
        <path d="M3275,11308C3272,11301 3271,10652 3272,9865L3275,8435L3845,8435L3855,10165L3984,10168C4070,10170 4117,10167 4126,10159C4137,10150 4140,10095 4140,9869L4140,9590L4273,9590C4363,9590 4410,9586 4418,9578C4427,9569 4430,9491 4430,9288L4430,9010L4569,9010C4690,9010 4709,9008 4714,8993C4718,8984 4720,8857 4719,8712C4719,8566 4722,8444 4727,8439C4732,8434 4915,8431 5156,8432L5575,8435L5578,9878L5580,11320L5295,11320C5074,11320 5010,11317 5010,11308C5010,11301 5009,10913 5007,10445L5005,9595L4863,9592C4752,9590 4720,9592 4720,9602L4720,9881C4720,10101 4718,10149 4706,10159C4697,10167 4652,10171 4573,10170C4508,10169 4449,10169 4443,10169C4433,10170 4430,10237 4428,10453L4425,10735L4145,10745L4135,11315L3707,11318C3370,11320 3278,11318 3275,11308Z" style="fill:rgb(153,153,153);fill-rule:nonzero;"/>
        <path d="M6455,11308C6452,11301 6451,10652 6452,9865L6455,8435L8465,8435L8465,9005L7035,9015L7035,9585L7605,9595L7608,9869C7610,10066 7607,10146 7599,10157C7589,10168 7537,10170 7321,10170L7043,10170C7033,10170 7030,10234 7030,10455L7030,10740L7748,10742L8465,10745L8468,11033L8470,11320L7465,11320C6670,11320 6458,11317 6455,11308Z" style="fill:rgb(153,153,153);fill-rule:nonzero;"/>
        <path d="M12235,11308C12232,11301 12231,10782 12232,10155L12235,9015L12515,9005L12525,8435L13234,8432C13644,8431 13948,8434 13953,8439C13958,8444 13961,8569 13961,8716C13960,8864 13963,8990 13968,8997C13973,9006 14018,9010 14110,9012L14245,9015L14248,10168L14250,11320L13965,11320C13744,11320 13680,11317 13680,11308L13680,10165C13680,9544 13676,9029 13672,9022C13665,9013 13572,9010 13239,9012L12815,9015L12805,11315L12522,11318C12301,11320 12238,11318 12235,11308Z" style="fill:rgb(153,153,153);fill-rule:nonzero;"/>
        <path d="M15125,11308C15122,11301 15121,10913 15122,10445L15125,9595L15835,9592C16225,9591 16548,9586 16553,9581C16559,9575 16564,9175 16560,9018C16560,9013 16237,9009 15843,9008L15125,9005L15125,8435L17135,8435L17135,10165L16430,10167C16042,10169 15719,10170 15713,10170C15703,10170 15700,10234 15700,10455L15700,10740L16418,10742L17135,10745L17135,11315L16132,11318C15335,11320 15128,11318 15125,11308Z" style="fill:rgb(153,153,153);fill-rule:nonzero;"/>
    </g>
</svg>
