
<svg width="300px" height="94px" viewBox="0 0 300 94" version="1.1" xmlns="http://www.w3.org/2000/svg" xmlns:xlink="http://www.w3.org/1999/xlink">
    <defs>
        <filter x="-6.9%" y="-23.5%" width="113.8%" height="147.1%" filterUnits="objectBoundingBox" id="filter-1">
            <feOffset dx="8" dy="-8" in="SourceAlpha" result="shadowOffsetOuter1"></feOffset>
            <feGaussianBlur stdDeviation="1" in="shadowOffsetOuter1" result="shadowBlurOuter1"></feGaussianBlur>
            <feColorMatrix values="0 0 0 0 0.684527853   0 0 0 0 0.677719097   0 0 0 0 0.677719097  0 0 0 1 0" type="matrix" in="shadowBlurOuter1" result="shadowMatrixOuter1"></feColorMatrix>
            <feMerge>
                <feMergeNode in="shadowMatrixOuter1"></feMergeNode>
                <feMergeNode in="SourceGraphic"></feMergeNode>
            </feMerge>
        </filter>
    </defs>
    <g id="Page-1" stroke="none" stroke-width="1" fill="none" fill-rule="evenodd">
        <g id="NexusLogo" fill-rule="nonzero">
            <g id="Group" filter="url(#filter-1)" transform="translate(145.000000, 41.500000) scale(-1, 1) rotate(-180.000000) translate(-145.000000, -41.500000) translate(0.000000, -1.000000)">
                <path d="M121.249711,84.7204855 C121.062428,84.5311895 121,82.9326897 121,78.8523088 C121,74.2250728 121.062428,73.1944611 121.291329,72.9841322 C121.499422,72.8158691 122.415029,72.7527704 124.05896,72.7738033 C125.411561,72.7948362 126.639306,72.7948362 126.764162,72.7948362 C126.972254,72.7738033 127.034682,71.3645996 127.076301,66.842528 L127.138728,60.8902198 L130.052023,60.7850554 L132.965318,60.6798909 L133.069364,54.6855169 L133.17341,48.691143 L136.086705,48.5859785 L139,48.4808141 L139.062428,42.507473 C139.104046,37.859204 139.041618,36.4920661 138.854335,36.3448359 C138.708671,36.2396714 137.460116,36.1765727 136.086705,36.1765727 C134.713295,36.1976056 133.46474,36.1976056 133.339884,36.1976056 C133.131792,36.1765727 133.069364,34.8304677 133.069364,30.1821988 L133.069364,24.2088577 L130.114451,24.145759 L127.138728,24.0826603 L127.076301,18.3196482 C127.055491,15.1436816 127.117919,12.4514715 127.201156,12.36734 C127.326012,12.2411426 134.671676,12.1149453 138.687861,12.1990769 C138.812717,12.1990769 138.916763,14.4285633 138.937572,18.151385 L139,24.0826603 L141.913295,24.1878248 L144.82659,24.2929893 L144.930636,30.2873632 L145.034682,36.2817372 L148.052023,36.2817372 L151.069364,36.2817372 L151.17341,30.2873632 L151.277457,24.2929893 L154.190751,24.1878248 L157.104046,24.0826603 L157.166474,18.151385 C157.187283,14.870254 157.291329,12.1990769 157.374566,12.178044 C157.457803,12.178044 158.706358,12.1359782 160.163006,12.0939124 C161.640462,12.0518466 162.909827,11.9466822 163.034682,11.8835835 C163.159538,11.7994519 163.242775,9.59099836 163.242775,5.86817663 L163.242775,0 L169.131792,0.0420657823 L175,0.105164456 L175,5.99437397 L175,11.8835835 L172.086705,11.9887479 L169.17341,12.0939124 L169.069364,18.0882864 L168.965318,24.0826603 L166.052023,24.1878248 L163.138728,24.2929893 L163.076301,30.2242646 L163.034682,36.1555399 L160.05896,36.2186385 L157.104046,36.2817372 L157.104046,42.3812756 L157.104046,48.4808141 L160.017341,48.5859785 L162.930636,48.691143 L163.034682,54.6855169 L163.138728,60.6798909 L166.114451,60.7429896 L169.069364,60.8060883 L169.027746,66.7373636 L168.965318,72.6686389 L163.138728,72.6686389 L157.312139,72.6686389 L157.208092,66.6742649 L157.104046,60.6798909 L154.149133,60.6167922 L151.17341,60.5536936 L151.17341,54.6013854 C151.17341,49.3431626 151.131792,48.6070114 150.840462,48.5018469 C150.653179,48.4387483 149.363006,48.3756496 147.947977,48.3756496 C146.033526,48.3756496 145.346821,48.4387483 145.159538,48.6701101 C144.993064,48.880439 144.930636,50.6051361 144.930636,54.4962209 C144.930636,57.5459901 144.930636,60.1751015 144.930636,60.3223318 C144.930636,60.5116278 144.223121,60.5747265 142.142197,60.5747265 C140.019653,60.5747265 139.312139,60.6378251 139.124855,60.8691869 C138.937572,61.0795158 138.875145,62.7621471 138.895954,66.7163307 C138.916763,69.745067 138.916763,72.3741784 138.895954,72.5214086 C138.895954,72.7107046 138.16763,72.7738033 135.982659,72.7738033 C133.797688,72.7738033 133.069364,72.836902 133.069364,73.0472309 C133.048555,73.1734282 133.048555,75.8025396 133.069364,78.831276 C133.090173,82.7854595 133.027746,84.4680908 132.840462,84.6784197 C132.507514,85.0780446 121.645087,85.1201104 121.249711,84.7204855 Z" id="Path" fill="#ABDA4C"></path>
                <path d="M0.0687171712,71.7465542 C0.00763524124,71.5987108 -0.0127254021,57.8915177 0.00763524124,41.2696981 L0.0687171712,11.0674082 L5.87150051,11.0674082 L11.6742839,11.0674082 L11.7760871,29.3366255 L11.8778903,47.6058428 L14.5044133,47.6692042 C16.2554286,47.7114452 17.2123788,47.6480837 17.3956246,47.4791199 C17.6195917,47.2890355 17.6806736,46.127409 17.6806736,41.35418 L17.6806736,35.4615654 L20.3886392,35.4615654 C22.2210971,35.4615654 23.1780473,35.3770835 23.3409325,35.2081196 C23.5241783,35.0180353 23.5852602,33.3706376 23.5852602,29.0831797 L23.5852602,23.2116856 L26.4153896,23.2116856 C28.8790275,23.2116856 29.2658797,23.1694446 29.3676829,22.8526374 C29.4491255,22.662553 29.4898468,19.9802518 29.4694861,16.9177818 C29.4694861,13.8341914 29.530568,11.2574925 29.6323713,11.1518901 C29.7341745,11.0462877 33.4601722,10.9829262 38.3670872,11.0040467 L46.8981968,11.0674082 L46.9592787,41.5442643 L47,72 L41.1972167,72 C36.6975145,72 35.3944333,71.9366386 35.3944333,71.7465542 C35.3944333,71.5987108 35.3740727,63.4039636 35.3333514,53.5195779 L35.2926301,35.5671678 L32.4014187,35.5038063 C30.1413873,35.4615654 29.4898468,35.5038063 29.4898468,35.7150112 C29.4898468,35.8628545 29.4898468,38.5240353 29.4898468,41.6076258 C29.4898468,46.2541319 29.4491255,47.2679151 29.2047977,47.4791199 C29.021552,47.6480837 28.105323,47.7325657 26.4968322,47.7114452 C25.1733904,47.6903247 23.9721124,47.6903247 23.8499486,47.6903247 C23.6463421,47.7114452 23.5852602,49.1265175 23.5445389,53.6885417 L23.483457,59.6445178 L20.6329669,59.7501202 L17.7824769,59.8557226 L17.6806736,65.8750601 L17.5788704,71.8943976 L8.86451508,71.957759 C2.00297829,72 0.129799101,71.957759 0.0687171712,71.7465542 Z" id="Path" fill="#BD1C85"></path>
                <path d="M67.0702298,71.7462738 C67.0078033,71.5982669 66.9869945,57.8759099 67.0078033,41.2357019 L67.0702298,11 L87.9830928,11 L108.895956,11 L108.895956,17.0259965 L108.895956,23.0519931 L94.0176503,23.1577123 L79.1393448,23.2634315 L79.1393448,29.2894281 L79.1393448,35.3154246 L85.0698582,35.4211438 L91.0003716,35.5268631 L91.062798,41.3202773 C91.1044157,45.4856153 91.0419892,47.1771231 90.8755187,47.4097054 C90.6674305,47.6422877 89.5853719,47.6845754 85.090667,47.6845754 C82.0525794,47.6845754 79.4306682,47.6845754 79.3058153,47.6845754 C79.0977271,47.6845754 79.0353007,49.0377816 79.0353007,53.7105719 L79.0353007,59.7365685 L93.9760327,59.7788562 L108.895956,59.8422877 L108.958382,65.9317158 L109,72 L88.0871369,72 C71.5441258,72 67.1326562,71.9365685 67.0702298,71.7462738 Z" id="Path" fill="#BD1C85"></path>
                <path d="M187.07023,71.7465542 C187.007803,71.5987108 186.986994,60.6371804 187.007803,47.394638 L187.07023,23.317288 L189.983464,23.2116856 L192.896699,23.1060832 L193.000743,17.0867457 L193.104787,11.0674082 L207.85824,11.0040467 C216.389856,10.9829262 222.715737,11.0462877 222.819781,11.1518901 C222.923825,11.2574925 222.986251,13.8975528 222.986251,17.0022637 C222.965442,20.1280951 223.027869,22.7892759 223.131913,22.9371193 C223.235957,23.1272036 224.172354,23.2116856 226.086765,23.2539265 L228.895956,23.317288 L228.958382,47.6692042 L229,72 L223.069487,72 C218.470738,72 217.138973,71.9366386 217.138973,71.7465542 C217.138973,71.5987108 217.138973,60.7427829 217.138973,47.6058428 C217.138973,34.4900232 217.055738,23.6129747 216.972503,23.4651314 C216.826841,23.275047 214.891621,23.2116856 207.962284,23.2539265 L199.139345,23.317288 L199.035301,47.6058428 L198.931257,71.8943976 L193.042361,71.957759 C188.443612,72 187.132656,71.957759 187.07023,71.7465542 Z" id="Path" fill="#BD1C85"></path>
                <path d="M248.070404,71.7737234 C248.007823,71.6256496 247.986962,63.4181297 248.007823,53.5183376 L248.070404,35.5379461 L262.881356,35.4744859 C271.016949,35.4533325 277.754889,35.3475655 277.859192,35.2417985 C277.984355,35.114878 278.088657,26.6535173 278.005215,23.3324332 C278.005215,23.2266662 271.267275,23.1420526 263.04824,23.1208992 L248.070404,23.057439 L248.070404,17.0287195 L248.070404,11 L269.035202,11 L290,11 L290,29.2976926 L290,47.5953851 L275.293351,47.6376919 C267.199478,47.6799987 260.461538,47.7011521 260.336375,47.7011521 C260.127771,47.7011521 260.065189,49.0549698 260.065189,53.7298716 L260.065189,59.7585911 L275.043025,59.8008979 L290,59.8643582 L290,65.8930777 L290,71.9217972 L269.076923,71.9852574 C252.451108,72.0275642 248.132986,71.9852574 248.070404,71.7737234 Z" id="Path" fill="#BD1C85"></path>
            </g>
        </g>
    </g>
</svg>